# xmcd CD database file
# Copyright (C) 1993-1998 Ti Kan
# 
# Track frame offsets:
#     182
#     17912
#     37725
#     57450
#     71625
#     85075
#     110400
#     162825
#     174262
#     197025
#     215275
#     240850
#     260650
#     285075
#     297825
# 
# Disc length: 4180 seconds
# 
# Revision: 1
# Processed by: cddbd v1.4b41PL1 Copyright (c) Steve Scherf et al.
# Submitted via: DiscPlay 4.0.4
# 
DISCID=c510520f
DTITLE=Stevie Ray Vaughan And Double Trouble - All You Can Get About Him - D
DTITLE=isc 1
DYEAR=1900
DGENRE=
TTITLE0=Testify
TTITLE1=Schoolgirl
TTITLE2=Pride And Joy
TTITLE3=Tell Me
TTITLE4=Love Struck Baby
TTITLE5=I'm Leaving You
TTITLE6=Voodoo Chile
TTITLE7=Honey Bee
TTITLE8=Couldn't Stand The Weather
TTITLE9=Cold Shot
TTITLE10=Little Wing
TTITLE11=3rd Stone From The Sun
TTITLE12=The Things That I Used To Do
TTITLE13=Wham!
TTITLE14=Mary Had A Little Lamb
EXTD=
EXTT0=Recorded live in Los Angeles in 1983.\n
EXTT1=Unreleased track.\n
EXTT2=Recorded live in Los Angeles in 1983.\n
EXTT3=Recorded live in Los Angeles in 1983.\n
EXTT4=Recorded live in Los Angeles in 1983.\n
EXTT5=Recorded live in Austin in 1989.\n
EXTT6=Recorded live in Montreal in 1983.\n
EXTT7=Recorded live in Montreal in 1983.\n
EXTT8=Recorded live in Montreal in 1983.\n
EXTT9=Recorded live in Montreal in 1983.\n
EXTT10=Recorded live in Reading in 1983.\n
EXTT11=Recorded live in Reading in 1983.\n
EXTT12=Recorded live in Lorely in 1982.\n
EXTT13=Recorded live in Los Angeles in 1983.\n
EXTT14=Recorded live in Los Angeles in 1983.\n
PLAYORDER=
